<svg xmlns="http://www.w3.org/2000/svg" viewBox="0 0 44 40">
  <path d="M8 12l5-7h8l4 7c7 5 10 15 6 24H5c-4-9-1-19 3-24z" fill="#263b37" stroke="#172621" stroke-width="2.5"/><path d="M12 12h13M13 6l5 7 4-8" fill="none" stroke="#759083" stroke-width="2"/>
  <path d="M25 17l4-5h6l4 6c4 5 4 12 1 18H26c2-7 1-13-1-19z" fill="#3d554d" stroke="#172621" stroke-width="2.5"/><path d="M29 13l3 5 3-6" fill="none" stroke="#879c92" stroke-width="2"/>
  <path d="M9 31c6 2 13 2 19 0" fill="none" stroke="#4f6860" stroke-width="2"/>
</svg>
